<svg width="33.985352" height="34.050293" viewBox="0 0 33.9854 34.0503" fill="none" xmlns="http://www.w3.org/2000/svg" xmlns:xlink="http://www.w3.org/1999/xlink">
	<desc>
			Created with Pixso.
	</desc>
	<defs/>
	<path id="Vector 9" d="M13.75 7.15C13.06 6.43 10.01 3.34 8.4 1.72C8.27 1.59 8.13 1.46 7.97 1.38C7.37 1.06 6.34 0.77 5.62 1.52C4.79 2.38 2.49 4.21 1.75 5.45C0.72 7.15 0.84 7.57 1.1 9.75C1.43 12.47 2.52 14.75 4.07 17.66C5.62 20.57 10.4 25.7 15.18 29.12C19.95 32.54 23.7 33.05 24.73 33.05C25.76 33.05 27.38 32.86 29.38 31.15C30.75 29.97 31.78 28.97 32.27 28.45C32.41 28.31 32.57 28.18 32.68 28.03C33.02 27.58 33.17 26.7 31.96 25.51C30.61 24.19 28.26 21.66 27.04 20.34C26.88 20.16 26.7 19.99 26.48 19.89C25.91 19.63 25 19.45 24.28 20.07C23.79 20.49 23.04 21.24 22.35 21.96C21.51 22.84 20.23 23.17 19.17 22.59C16.78 21.29 13.43 18.77 11 14.84C10.31 13.73 10.59 12.31 11.54 11.41L13.3 9.75C13.75 9.2 14.48 7.91 13.75 7.15Z" stroke="#000000" stroke-opacity="1.000000" stroke-width="2.000000"/>
</svg>
