<svg width="26.000000" height="25.996582" viewBox="0 0 26 25.9966" fill="none" xmlns="http://www.w3.org/2000/svg" xmlns:xlink="http://www.w3.org/1999/xlink">
	<desc>
			Created with Pixso.
	</desc>
	<defs/>
	<path id="Vector 15" d="M16.2 17.61L19.58 17.61L20.37 13.05L16.2 13.05L16.2 10.23L20.37 10.23L20.37 5.62L15.95 5.62C14.64 5.64 11.94 6.5 11.58 9.83L11.58 13.05L8.7 13.05L8.7 17.61L11.58 17.61L11.58 24.99L4.03 24.99C3.02 24.83 1 23.94 1 21.72C1 19.5 1 9.17 1 4.28C1.03 3.21 1.68 1.05 4.03 1.01C6.37 0.97 17.09 1 22.16 1.01C22.99 1.18 24.67 2.06 24.75 4.28C24.83 6.5 24.95 16.83 25 21.72C24.95 22.81 24.15 24.99 21.37 24.99C18.58 24.99 16.76 24.99 16.2 24.99L16.2 17.61Z" stroke="#000000" stroke-opacity="1.000000" stroke-width="2.000000"/>
</svg>
