<svg width="259.000000" height="49.000000" viewBox="0 0 259 49" fill="none" xmlns="http://www.w3.org/2000/svg" xmlns:xlink="http://www.w3.org/1999/xlink">
	<desc>
			Created with Pixso.
	</desc>
	<defs/>
	<path id="Giraffe Club" d="M43.35 10.53C42.63 9.8 41.76 9.44 40.73 9.44C39.74 9.44 38.87 9.81 38.13 10.55Q37.52 11.15 37.24 11.88Q37.01 12.48 37.01 13.18C37.01 14.21 37.37 15.09 38.09 15.82C38.82 16.54 39.7 16.89 40.73 16.89C41.76 16.89 42.63 16.54 43.35 15.82C44.08 15.09 44.45 14.2 44.45 13.16C44.45 12.13 44.08 11.25 43.35 10.53ZM105.68 23.3L105.68 18.99L102.39 18.99L102.39 16.87C102.39 15.6 102.51 14.75 102.77 14.33C103.04 13.9 103.41 13.68 103.87 13.68C104.05 13.68 104.24 13.74 104.44 13.87C104.6 13.96 104.91 14.26 105.37 14.76C105.86 15.3 106.21 15.64 106.41 15.78C106.69 15.98 106.99 16.14 107.3 16.24C107.63 16.34 107.96 16.39 108.3 16.39C109.15 16.39 109.84 16.13 110.35 15.61C110.88 15.09 111.14 14.41 111.14 13.58C111.14 12.54 110.57 11.59 109.42 10.74Q107.69 9.44 104.64 9.44C102.72 9.44 101.07 9.79 99.68 10.49C98.3 11.2 97.3 12.11 96.68 13.24Q95.88 14.62 95.88 16.87L95.88 18.99L92.88 18.99L92.88 23.3L95.88 23.3L95.88 33.23C95.88 34.06 95.84 34.58 95.74 34.8C95.66 35 95.53 35.14 95.35 35.22C95.18 35.31 94.68 35.35 93.87 35.35L92.88 35.35L92.88 39.27L105.43 39.27L105.43 35.35L104.3 35.35C103.62 35.35 103.17 35.29 102.96 35.18C102.74 35.08 102.58 34.91 102.49 34.68C102.42 34.51 102.39 34.03 102.39 33.23L102.39 23.3L105.68 23.3ZM121.49 23.3L121.49 18.99L118.2 18.99L118.2 16.87C118.2 15.6 118.33 14.75 118.58 14.33C118.85 13.9 119.22 13.68 119.68 13.68C119.86 13.68 120.05 13.74 120.25 13.87C120.41 13.96 120.72 14.26 121.18 14.76C121.67 15.3 122.02 15.64 122.22 15.78C122.5 15.98 122.8 16.14 123.11 16.24C123.44 16.34 123.77 16.39 124.11 16.39C124.96 16.39 125.65 16.13 126.16 15.61C126.69 15.09 126.96 14.41 126.96 13.58Q126.96 13.35 126.92 13.13Q126.7 11.83 125.23 10.74C124.08 9.87 122.48 9.44 120.45 9.44Q117.57 9.44 115.49 10.49C114.11 11.2 113.11 12.11 112.49 13.24Q111.69 14.62 111.69 16.87L111.69 18.99L108.69 18.99L108.69 23.3L111.69 23.3L111.69 33.23C111.69 34.06 111.65 34.58 111.55 34.8C111.47 35 111.34 35.14 111.17 35.22C110.99 35.31 110.49 35.35 109.68 35.35L108.69 35.35L108.69 39.27L121.24 39.27L121.24 35.35L120.11 35.35C119.43 35.35 118.98 35.29 118.77 35.18C118.55 35.08 118.39 34.91 118.3 34.68C118.23 34.51 118.2 34.03 118.2 33.23L118.2 23.3L121.49 23.3ZM202.57 33.21L202.57 9.44L200.6 9.44C198.01 10.41 195.51 10.98 193.08 11.14L193.08 15.09L196.09 15.09L196.09 33.21C196.09 33.99 196.04 34.49 195.93 34.72C195.82 34.93 195.65 35.1 195.42 35.2C195.19 35.3 194.67 35.35 193.85 35.35L193.08 35.35L193.08 39.27L205.66 39.27L205.66 35.35L204.95 35.35C204.06 35.35 203.51 35.31 203.3 35.22C202.98 35.1 202.77 34.91 202.67 34.64C202.61 34.49 202.57 34.01 202.57 33.21ZM242.97 20.39L242.97 9.44L240.98 9.44C238.69 10.38 236.21 10.95 233.54 11.14L233.54 15.09L236.51 15.09L236.51 39.27L240.98 39.27L242.08 37.56Q243.6 38.74 245 39.25C245.94 39.59 246.91 39.76 247.93 39.76C250.42 39.76 252.54 38.76 254.29 36.77C256.05 34.76 256.93 32.12 256.93 28.82Q256.93 24.48 254.85 21.68Q254.6 21.34 254.31 21.02Q253.26 19.84 251.94 19.21Q250.44 18.5 248.6 18.5Q247.28 18.5 245.96 18.93C245.09 19.2 244.1 19.69 242.97 20.39ZM32.56 24.15L18.72 24.15L18.72 28.11L20.33 28.11C21.06 28.11 21.55 28.17 21.79 28.3C22.05 28.42 22.25 28.61 22.4 28.88C22.49 29.07 22.54 29.53 22.54 30.25L22.54 31.28C22.54 32.11 22.38 32.77 22.05 33.25C21.73 33.74 21.13 34.18 20.24 34.57C19.38 34.97 18.46 35.16 17.48 35.16C16.1 35.16 14.83 34.77 13.68 33.99Q11.95 32.79 10.88 30.33Q9.82 27.87 9.82 24.52Q9.82 21.47 10.8 19.33C11.45 17.9 12.33 16.81 13.44 16.06C14.56 15.32 15.77 14.94 17.05 14.94C17.96 14.94 18.89 15.15 19.84 15.57C20.8 15.99 21.65 16.58 22.38 17.32C23.12 18.07 24.13 19.47 25.41 21.53L29.15 20.31L26.59 10.92L23.74 10.92L22.99 12.18C22.11 11.65 21.04 11.23 19.8 10.92C18.57 10.59 17.33 10.43 16.08 10.43C13.5 10.43 11.11 11.07 8.91 12.34Q7.2 13.32 5.88 14.68Q4.65 15.94 3.76 17.52Q3.56 17.9 3.37 18.29Q1.93 21.29 1.93 24.98Q1.93 28.51 3.23 31.46Q3.48 32.03 3.78 32.58Q5.01 34.81 6.81 36.4Q7.75 37.22 8.84 37.87C10.97 39.13 13.33 39.76 15.92 39.76C17.39 39.76 18.82 39.55 20.18 39.13C21.55 38.71 22.87 38.08 24.15 37.24L25.22 39.27L29.39 39.27L29.39 30.39Q29.39 29.27 29.57 28.88C29.69 28.61 29.88 28.42 30.12 28.3C30.38 28.17 30.85 28.11 31.52 28.11L32.56 28.11L32.56 24.15ZM187.43 10.92L184.55 10.92L183.88 12.14Q180.83 10.43 176.78 10.43C174.13 10.43 171.72 11.06 169.55 12.3C167.4 13.55 165.69 15.29 164.43 17.52Q163.94 18.4 163.58 19.32Q162.56 21.92 162.56 24.92Q162.56 27.47 163.31 29.77Q163.76 31.16 164.49 32.46C165.78 34.76 167.5 36.56 169.65 37.85C171.82 39.12 174.24 39.76 176.91 39.76C180.12 39.76 183.03 38.91 185.64 37.22C187.34 36.12 189.21 34.18 191.25 31.38L188.1 29.05C186.78 30.94 185.2 32.45 183.37 33.58Q181.68 34.63 179.88 34.87Q179.34 34.94 178.8 34.94C176.3 34.94 174.28 33.89 172.74 31.79C171.21 29.69 170.44 27.18 170.44 24.27Q170.44 21.41 171.44 19.27C172.12 17.85 173.02 16.77 174.16 16.04C175.31 15.31 176.55 14.94 177.86 14.94C179.66 14.94 181.34 15.64 182.88 17.04Q184.55 18.56 186.44 22.2L190.22 21.1L187.43 10.92ZM44.02 33.52L44.02 18.5L42.09 18.5C41.36 18.88 40.74 19.15 40.24 19.31C39.47 19.56 38.59 19.77 37.6 19.94C36.62 20.12 35.6 20.23 34.53 20.29L34.53 24.11L37.54 24.11L37.54 33.8C37.54 34.33 37.49 34.68 37.4 34.86C37.3 35.04 37.15 35.16 36.95 35.25C36.76 35.31 36.31 35.35 35.61 35.35L34.53 35.35L34.53 39.27L47.09 39.27L47.09 35.35L45.99 35.35C45.26 35.35 44.79 35.31 44.57 35.22C44.37 35.13 44.22 35 44.14 34.84C44.06 34.68 44.02 34.24 44.02 33.52ZM58.49 21.45L58.49 18.5L56.58 18.5Q53 20 49.69 20.21L49.69 24.11L52.68 24.11L52.68 33.44C52.68 34.14 52.63 34.59 52.54 34.8C52.44 35 52.3 35.14 52.11 35.22C51.93 35.31 51.47 35.35 50.73 35.35L49.69 35.35L49.69 39.27L62.23 39.27L62.23 35.35L61.34 35.35C60.56 35.35 60.06 35.3 59.83 35.2C59.6 35.11 59.43 34.96 59.32 34.76C59.23 34.55 59.18 34.11 59.18 33.44L59.18 25.49C59.99 25.04 60.58 24.82 60.93 24.82C61.16 24.82 61.45 24.87 61.8 24.98C62.48 25.21 62.92 25.35 63.12 25.39C63.34 25.43 63.58 25.45 63.86 25.45C64.87 25.45 65.66 25.1 66.21 24.41C66.78 23.72 67.07 22.95 67.07 22.1C67.07 21.45 66.91 20.84 66.6 20.27C66.3 19.7 65.89 19.27 65.36 18.97C64.84 18.66 64.26 18.5 63.59 18.5C62.86 18.5 62.09 18.71 61.3 19.13C60.51 19.54 59.57 20.31 58.49 21.45ZM80.91 25.47L80.91 26.97C78.45 27.16 76.37 27.48 74.65 27.93C72.94 28.36 71.67 28.86 70.85 29.43C70.03 30 69.42 30.67 69 31.42C68.59 32.18 68.39 33.02 68.39 33.92C68.39 35.52 68.98 36.87 70.18 37.97C71.37 39.05 72.93 39.59 74.87 39.59C75.9 39.59 76.96 39.41 78.06 39.05C79.17 38.67 80.4 38.04 81.76 37.16C82.36 37.97 83.09 38.58 83.97 38.98C84.85 39.39 85.92 39.59 87.16 39.59C88.22 39.59 89.33 39.41 90.48 39.05L90.48 35.08C89.84 35.3 89.33 35.41 88.95 35.41C88.57 35.41 88.23 35.31 87.92 35.12C87.61 34.93 87.4 34.72 87.31 34.47C87.21 34.22 87.16 33.64 87.16 32.75L87.16 25.47Q87.16 22.87 86.37 21.61C85.86 20.76 84.94 20.02 83.61 19.41C82.29 18.8 80.7 18.5 78.81 18.5C76.93 18.5 75.24 18.8 73.73 19.39Q71.48 20.29 70.34 21.69C69.77 22.4 69.48 23.2 69.48 24.11C69.48 24.91 69.76 25.58 70.32 26.12Q70.58 26.37 70.88 26.55Q71.55 26.93 72.45 26.93C73.14 26.93 73.74 26.75 74.24 26.38C74.75 26.02 75.2 25.42 75.56 24.58C75.85 23.91 76.1 23.47 76.31 23.24C76.53 23 76.82 22.82 77.19 22.67C77.55 22.52 77.96 22.44 78.41 22.44C78.99 22.44 79.48 22.56 79.87 22.79C80.26 23 80.53 23.28 80.68 23.62C80.83 23.96 80.91 24.58 80.91 25.47ZM145.55 34.55L142.77 31.75Q141.2 33.42 139.6 34.25Q137.99 35.06 136.63 35.06C135.21 35.06 134 34.53 133.01 33.48C132.03 32.41 131.53 31.01 131.51 29.29L145.18 29.29C145.18 28.09 145.14 27.2 145.06 26.65C144.87 25.54 144.52 24.47 144 23.44C143.5 22.4 142.83 21.51 141.99 20.78C141.17 20.04 140.2 19.48 139.09 19.09C137.98 18.7 136.74 18.5 135.39 18.5C133.26 18.5 131.36 18.96 129.68 19.88C128 20.79 126.68 22.06 125.74 23.68C124.79 25.29 124.31 27.08 124.31 29.03C124.31 31.99 125.37 34.53 127.48 36.63C129.6 38.71 132.2 39.76 135.29 39.76C137.21 39.76 139 39.35 140.65 38.54C142.32 37.71 143.95 36.38 145.55 34.55ZM216.64 18.8L207.15 18.99L207.15 22.91L208.26 22.91C208.93 22.91 209.36 22.96 209.56 23.07C209.77 23.17 209.91 23.32 209.99 23.52C210.09 23.72 210.13 24.21 210.13 24.98L210.13 33.36C210.13 34.48 210.27 35.4 210.54 36.12C210.81 36.84 211.22 37.47 211.78 38.01C212.33 38.54 213.02 38.96 213.83 39.27C214.66 39.59 215.56 39.76 216.53 39.76C217.75 39.76 218.97 39.54 220.17 39.11C221.38 38.66 222.58 38 223.77 37.11L223.77 39.51L232.69 39.27L232.69 35.35L231.61 35.35C230.87 35.35 230.39 35.31 230.19 35.22C230 35.13 229.86 34.99 229.76 34.8C229.68 34.59 229.64 34.11 229.64 33.36L229.64 18.8L220.13 18.99L220.13 22.91L221.31 22.91C221.89 22.91 222.28 22.97 222.49 23.09C222.69 23.2 222.85 23.38 222.96 23.64C223.06 23.9 223.12 24.37 223.12 25.06L223.12 32.99C221.83 33.82 221.04 34.3 220.74 34.43C219.98 34.76 219.26 34.92 218.59 34.92C218.13 34.92 217.74 34.83 217.43 34.64C217.13 34.43 216.92 34.18 216.8 33.86C216.69 33.55 216.64 32.93 216.64 31.99L216.64 18.8ZM138.11 23.97C138.41 24.43 138.61 25.06 138.7 25.88L131.85 25.88Q132 24.74 132.46 24.01Q132.66 23.71 132.9 23.47Q133.27 23.11 133.74 22.85C134.27 22.56 134.82 22.42 135.39 22.42Q135.67 22.42 135.95 22.47Q136.46 22.57 136.93 22.85C137.43 23.12 137.83 23.49 138.11 23.97ZM242.97 30.98L242.97 24.8C243.66 24.31 244.31 23.95 244.9 23.7C245.51 23.46 246.08 23.34 246.61 23.34Q247.2 23.34 247.69 23.55Q248.39 23.86 248.91 24.6C249.62 25.64 249.98 27.12 249.98 29.03C249.98 31.06 249.56 32.65 248.72 33.8C248.06 34.72 247.17 35.18 246.04 35.18C245.38 35.18 244.79 35.03 244.29 34.72C243.81 34.41 243.46 34.02 243.26 33.56Q242.97 32.85 242.97 30.98ZM77.15 31.14C77.88 30.87 79.13 30.61 80.91 30.35L80.91 33.9C80.17 34.35 79.51 34.69 78.91 34.92C78.33 35.15 77.82 35.27 77.37 35.27C76.68 35.27 76.13 35.08 75.72 34.72C75.32 34.35 75.11 33.9 75.11 33.36Q75.11 33.28 75.12 33.21Q75.17 32.66 75.58 32.14C75.89 31.73 76.41 31.4 77.15 31.14Z" fill="#000000" fill-opacity="1.000000" fill-rule="evenodd"/>
</svg>
